<?xml version="1.0" encoding="UTF-8" standalone="no"?>
<!-- Created with Inkscape (http://www.inkscape.org/) -->

<svg
   width="270.93362mm"
   height="163.24792mm"
   viewBox="0 0 270.93362 163.24792"
   version="1.1"
   id="svg5"
   xml:space="preserve"
   xmlns="http://www.w3.org/2000/svg"
   xmlns:svg="http://www.w3.org/2000/svg"><defs
     id="defs2" /><g
     id="layer1"
     transform="translate(-374.87718,-177.51556)"><g
       id="g803"
       transform="translate(298.10843,20.912084)"><path
         style="fill:#13232c;stroke-width:0.264583"
         d="m 76.76875,248.54612 c 0,-39.21786 0.0893,-71.30142 0.19844,-71.29679 0.10914,0.005 0.42955,0.18322 0.71203,0.39687 0.6036,0.45655 2.15371,0.51725 2.41494,0.0946 0.1,-0.16176 -0.15483,-0.56218 -0.56671,-0.8906 l -0.74834,-0.59671 0.58232,-0.36367 c 0.78742,-0.49175 0.73226,-0.85751 -0.18131,-1.20235 -0.63046,-0.23797 -0.74097,-0.40674 -0.63371,-0.96784 0.0863,-0.45155 0.38695,-0.7692 0.89592,-0.94663 0.64763,-0.22576 0.766,-0.40973 0.766,-1.1905 0,-0.83971 0.065,-0.91895 0.71611,-0.87366 0.55273,0.0385 0.71904,-0.0709 0.72895,-0.47935 0.0109,-0.44722 1.10173,-2.51355 1.32698,-2.51355 0.0407,0 0.52719,0.65811 1.08117,1.46246 0.55398,0.80435 1.26759,1.52781 1.58581,1.60767 0.63908,0.16041 1.0588,0.86123 1.27427,2.12771 0.11603,0.68205 0.0435,0.85787 -0.40206,0.97438 -0.7491,0.1959 -0.42366,0.59778 1.11583,1.3779 1.30443,0.661 1.5634,1.08067 1.00899,1.63509 -0.21722,0.21721 -0.18227,0.45644 0.13229,0.90554 0.23512,0.33568 0.4275,0.83671 0.4275,1.11339 0,0.44809 -0.15923,0.48985 -1.45725,0.38221 -1.01111,-0.0838 -1.64409,-0.29638 -2.06757,-0.69422 -0.73702,-0.6924 -1.22133,-0.74114 -1.09656,-0.11035 0.36012,1.82061 0.41027,1.91842 0.9884,1.9276 0.88543,0.0141 1.56936,0.49454 3.10069,2.17832 1.84824,2.03223 2.9287,4.1623 2.11129,4.1623 -0.1502,0 -0.70052,-0.17859 -1.22294,-0.39687 -1.06017,-0.44297 -1.67898,-0.50798 -1.67898,-0.17639 0,0.49512 1.9561,2.1286 3.0487,2.54586 l 1.17025,0.44693 1.4636,-0.87543 c 0.80498,-0.48148 1.42492,-0.9961 1.37764,-1.14361 -0.0473,-0.14751 -0.45996,-0.50632 -0.91706,-0.79736 -0.84355,-0.53711 -1.08231,-0.92604 -0.56849,-0.92604 0.6775,0 4.214942,-1.67016 4.214942,-1.99003 0,-0.22963 -0.508977,-0.41674 -1.455208,-0.53496 -0.800364,-0.1 -1.455204,-0.2754 -1.455204,-0.38978 0,-0.11438 0.44648,-0.47016 0.99218,-0.79062 0.545706,-0.32046 1.087404,-0.74894 1.203775,-0.95217 0.116372,-0.20324 0.451621,-0.36953 0.744999,-0.36953 0.758008,0 1.556958,-0.47997 1.556958,-0.93535 0,-0.4534 -1.076834,-0.52781 -1.500927,-0.10372 -0.20207,0.20207 -0.615574,0.19452 -1.435302,-0.0262 -1.074353,-0.28929 -1.117513,-0.33487 -0.644543,-0.68072 0.278801,-0.20385 0.706224,-0.37065 0.949827,-0.37065 0.552392,0 1.837195,-0.98742 1.837195,-1.41195 0,-0.27985 -2.212794,-1.50653 -2.707162,-1.50074 -0.1065,0.001 -0.59949,-0.39187 -1.09554,-0.87361 l -0.90191,-0.87587 1.75699,-0.57744 c 0.96635,-0.31759 2.085544,-0.65101 2.487101,-0.74093 0.858455,-0.19224 1.194404,-0.60858 0.725105,-0.89863 -0.384604,-0.2377 -0.127949,-0.79375 0.366369,-0.79375 0.473776,0 1.485715,-1.13793 1.485715,-1.6707 0,-0.44534 -0.54389,-0.60763 -0.886886,-0.26464 -0.09973,0.0997 -0.606269,0.32742 -1.12564,0.50597 -1.77707,0.61093 -3.568734,-0.73674 -2.337712,-1.7584 0.22919,-0.19021 1.198512,-0.365 2.182813,-0.3936 1.968615,-0.0572 3.844305,-0.65437 3.968015,-1.26328 0.1208,-0.59461 -0.44918,-0.81737 -0.95737,-0.37415 -0.66456,0.57959 -2.29276,0.80905 -2.653824,0.37399 -0.406425,-0.48971 0.982731,-1.80797 2.290344,-2.17345 0.70024,-0.19572 0.99932,-0.43851 1.06001,-0.86052 0.0858,-0.5964 -0.31458,-0.8073 -0.61371,-0.3233 -0.0899,0.14552 -0.44141,0.26458 -0.78106,0.26458 -0.33964,0 -0.68089,0.16511 -0.758329,0.36691 -0.121755,0.31729 -0.808359,0.37986 -2.098631,0.19126 -0.109141,-0.0159 -0.198438,-0.38619 -0.198438,-0.82275 0,-0.61736 0.117593,-0.79375 0.529167,-0.79375 0.349619,0 0.529167,-0.17639 0.529167,-0.51986 0,-0.59634 0.910717,-1.1809 1.492164,-0.95778 0.2725,0.10457 0.36738,0.002 0.31035,-0.33419 -0.0927,-0.54746 1.47041,-3.21525 1.88393,-3.21525 0.14779,0 0.44596,0.34276 0.6626,0.76169 0.21664,0.41892 0.57688,0.8319 0.80054,0.91773 0.22367,0.0858 0.40666,0.33027 0.40666,0.54321 0,0.21294 0.35719,0.64151 0.79375,0.95237 0.43657,0.31085 0.79375,0.78063 0.79375,1.04395 0,0.26331 0.16631,0.61677 0.36957,0.78546 0.20325,0.16869 0.31404,0.51901 0.24618,0.77848 -0.0678,0.25948 0.0635,0.62687 0.2919,0.81642 0.2284,0.18955 0.41527,0.62353 0.41527,0.9644 0,0.35542 0.23298,0.74444 0.54625,0.9121 0.43442,0.23249 0.48254,0.36911 0.23504,0.66732 -0.41386,0.49868 -0.15368,1.42927 0.66613,2.38254 0.36773,0.4276 0.66875,0.91325 0.66893,1.07923 2.6e-4,0.36474 -1.82294,0.62037 -2.03042,0.28466 -0.0806,-0.1304 -0.52841,-0.16545 -0.99516,-0.0779 -0.77552,0.14548 -0.9232,0.0553 -1.71437,-1.04633 -0.69046,-0.96145 -0.93964,-1.14419 -1.23077,-0.90257 -0.31023,0.25746 -0.31027,0.40817 -2.6e-4,1.00393 0.20062,0.38555 0.67374,0.98964 1.05137,1.34242 0.37762,0.3528 0.68659,0.86664 0.68659,1.14188 0,0.89474 0.51715,1.49775 1.43161,1.6693 0.61952,0.11623 1.43876,0.70028 2.65491,1.89274 1.76684,1.73243 2.04355,2.3842 0.9601,2.26145 -0.85981,-0.0974 -1.60722,0.39954 -1.60567,1.06761 10e-4,0.42063 0.41128,0.84735 1.45385,1.51205 0.80828,0.51533 1.45308,1.12207 1.45384,1.36804 10e-4,0.45337 -0.98328,0.79098 -1.97287,0.67642 -1.07839,-0.12484 -0.72266,0.79505 0.65189,1.68573 l 1.35151,0.87574 -0.6099,0.46928 c -0.33544,0.2581 -0.81825,0.47192 -1.07291,0.47516 -0.89211,0.0114 -0.4996,1.01362 0.7276,1.85796 0.65485,0.45055 1.19063,0.93653 1.19063,1.07997 0,0.14344 -0.41672,0.50667 -0.92604,0.80717 -0.50933,0.30051 -0.92605,0.64192 -0.92605,0.7587 0,0.11677 0.40128,0.44907 0.89173,0.73845 0.63513,0.37473 0.92653,0.76317 1.01264,1.34988 0.10429,0.71061 -1e-5,0.89508 -0.75944,1.34316 -0.86753,0.51185 -1.1333,1.14344 -0.61576,1.4633 0.14552,0.0899 0.26458,0.45244 0.26458,0.80555 0,0.5177 0.30077,0.79387 1.5531,1.42604 1.02929,0.51958 1.6081,0.98935 1.71618,1.39287 0.26245,0.97985 0.2079,1.07255 -0.52311,0.88908 -0.64385,-0.1616 -0.68087,-0.12401 -0.51778,0.52579 0.10005,0.39863 0.0461,0.85592 -0.12534,1.0625 -0.45197,0.54459 -0.19175,0.96876 0.95917,1.56346 0.71734,0.37067 1.19927,0.88209 1.55726,1.65254 0.28513,0.61366 0.70185,1.15179 0.92604,1.19583 0.29411,0.0578 0.40761,0.4083 0.40761,1.25881 0,0.96785 0.0947,1.19723 0.52917,1.28217 0.69298,0.13547 0.91705,0.51546 0.92199,1.56359 0.003,0.67281 0.11556,0.85989 0.51658,0.85989 0.42956,0 0.49066,0.1392 0.37744,0.8599 -0.10234,0.65135 -0.0154,0.93228 0.35824,1.15835 0.40182,0.24309 0.62926,0.18155 1.226,-0.33174 0.42049,-0.36169 0.75587,-0.93977 0.78716,-1.35679 0.0439,-0.58516 0.20055,-0.7434 0.8048,-0.81292 0.77473,-0.0891 0.83574,-0.43576 0.30105,-1.71035 -0.15607,-0.37202 -0.0186,-0.54178 0.64033,-0.79048 0.64551,-0.24366 0.80932,-0.43955 0.71007,-0.84916 -0.16186,-0.668 0.75483,-1.83421 1.28259,-1.63169 0.21277,0.0817 0.75811,0.66004 1.21186,1.28531 0.66495,0.91633 0.744,1.15346 0.4075,1.22241 -0.22962,0.0471 -0.41749,0.19169 -0.41749,0.32142 0,0.49325 1.1946,0.83951 3.05885,0.88661 1.98185,0.0501 3.02657,0.53536 3.02657,1.4059 0,0.45246 1.27124,1.66615 1.74516,1.66615 0.83946,0 4.07015,-2.57952 4.07435,-3.25313 8e-4,-0.11574 -0.39327,-0.13641 -0.87554,-0.0459 -1.60348,0.30081 -1.74607,-0.73834 -0.41862,-3.05094 0.12529,-0.21828 0.46838,-0.89714 0.76243,-1.50858 0.72147,-1.5002 1.88228,-2.73534 2.06347,-2.19559 0.0733,0.21828 0.62972,0.87313 1.23656,1.45521 1.23307,1.18278 2.05186,2.369 1.80536,2.61551 -0.0894,0.0894 -0.44043,0.16262 -0.77998,0.16262 -0.74258,0 -0.7359,-0.0798 -0.0981,1.17124 0.2856,0.5602 0.88092,1.23846 1.32292,1.50726 0.96459,0.5866 1.06617,1.29025 0.18627,1.29025 -0.8523,0 -1.04492,0.27258 -0.56632,0.80142 0.49829,0.5506 0.11135,1.84441 -0.55161,1.84441 -0.77731,0 -0.23967,0.65315 1.04974,1.27527 l 1.27219,0.61382 -0.60732,0.64646 c -0.46859,0.49879 -0.53559,0.71818 -0.29332,0.96045 0.46683,0.46684 0.3868,0.66169 -0.34746,0.84598 -0.91639,0.23 -0.82669,0.61487 0.26458,1.13526 1.09712,0.52318 1.16006,0.75666 0.26459,0.98141 -0.87881,0.22056 -0.85847,1.03956 0.0359,1.44708 0.65099,0.29661 0.66591,0.34078 0.22416,0.66379 -0.55887,0.40866 -0.34109,0.88749 0.55935,1.22983 0.61379,0.23337 0.69451,0.45957 0.74716,2.09388 0.0148,0.4592 0.2082,0.69297 0.66273,0.80104 0.90271,0.21464 0.9638,0.68533 0.18288,1.40906 -1.48712,1.37822 -1.41627,2.75904 0.20808,4.05514 0.51239,0.40884 1.37039,1.31872 1.90668,2.02194 0.68243,0.89487 1.05863,1.19502 1.25352,1.00013 0.51213,-0.51213 1.14605,-0.28774 2.95075,1.04446 0.98567,0.7276 1.91999,1.32291 2.07627,1.32291 0.15628,0 -0.57437,-0.78355 -1.62367,-1.74122 -1.04929,-0.95767 -1.90781,-1.94952 -1.90781,-2.2041 0,-0.25459 0.52686,-0.84125 1.1708,-1.30369 1.02199,-0.73394 1.18405,-0.78168 1.27505,-0.37558 0.0573,0.25587 0.005,0.74579 -0.11663,1.08871 -0.22899,0.64637 0.39278,1.97846 1.25902,2.69739 0.22377,0.18571 0.82547,1.19613 1.33711,2.24538 1.21968,2.50129 3.12548,4.60669 5.24074,5.78961 1.79955,1.00636 3.59225,3.04824 3.59225,4.09156 0,0.40143 0.16846,0.56251 0.59531,0.56924 0.32742,0.005 0.89297,0.17953 1.25677,0.3875 0.3638,0.20796 1.15945,0.38234 1.76811,0.38749 0.91193,0.008 1.13933,0.11413 1.29243,0.60469 0.23826,0.76349 0.6293,1.00587 1.33647,0.82838 0.38808,-0.0974 0.85333,0.11142 1.48612,0.66701 0.66288,0.58202 1.46953,0.93002 2.87683,1.24111 1.07562,0.23776 2.49144,0.58819 3.14629,0.77874 0.65484,0.19054 1.64527,0.42996 2.20096,0.53204 l 1.01034,0.18561 -0.18396,-1.02504 c -0.10117,-0.56377 -0.34747,-1.213 -0.54731,-1.44274 -0.80117,-0.921 -0.14837,-2.21353 1.21336,-2.40244 0.51747,-0.0718 0.69416,-0.3006 0.86307,-1.11766 0.13289,-0.64281 0.10876,-1.15227 -0.0645,-1.361 -0.44624,-0.53769 0.44215,-2.09073 1.40357,-2.45362 0.44903,-0.16949 0.73972,-0.38486 0.64598,-0.4786 -0.20006,-0.20006 0.46632,-1.57564 0.89022,-1.83762 0.16048,-0.0992 0.6279,0.16116 1.03871,0.57854 0.41082,0.41737 1.12888,1.04829 1.59569,1.40204 0.46682,0.35375 1.01728,1.00859 1.22325,1.45521 0.20597,0.44661 0.62316,1.20682 0.92707,1.68934 0.44913,0.71307 0.49875,0.99546 0.26508,1.50832 -0.25813,0.56653 -0.18055,0.71571 0.75922,1.46002 1.25328,0.99261 1.31035,1.4529 0.25464,2.05363 -0.43564,0.24789 -0.79283,0.53083 -0.79375,0.62876 -7.9e-4,0.0979 0.68294,0.59675 1.51968,1.10851 2.8039,1.71487 2.80152,1.71238 2.32859,2.43417 -0.39336,0.60033 -0.37812,0.65278 0.31578,1.08692 0.40099,0.25088 0.76848,0.48199 0.81665,0.51357 0.0482,0.0316 -0.0506,0.31565 -0.21952,0.63126 -0.24855,0.46441 -0.22345,0.66628 0.13162,1.05863 0.4103,0.45337 0.40023,0.55171 -0.15534,1.51703 l -0.59408,1.03224 1.12284,1.51993 c 0.81793,1.1072 1.27896,1.50756 1.69778,1.47438 1.05569,-0.0836 1.23641,0.009 1.23641,0.63347 0,0.34125 0.24479,0.84198 0.54397,1.11273 0.46495,0.42078 0.62395,0.44234 1.09458,0.14843 2.05013,-1.28033 2.40451,-1.4021 3.05983,-1.05138 0.37704,0.20179 0.94952,1.02539 1.39374,2.00507 0.99457,2.19348 1.59616,2.17034 3.00574,-0.11561 0.43664,-0.70811 0.82461,-1.06459 1.06022,-0.97418 0.20959,0.0804 0.78317,-0.26898 1.31565,-0.80146 0.51923,-0.51923 1.15638,-0.94659 1.41589,-0.9497 0.25951,-0.003 0.79648,-0.46474 1.19326,-1.02586 1.06424,-1.50501 1.55478,-1.51572 3.06829,-0.0669 0.70716,0.67692 1.60522,1.73904 1.99567,2.36028 l 0.70993,1.12953 10.62087,-0.14895 c 5.84147,-0.0819 10.71648,-0.20804 10.83334,-0.28026 0.11687,-0.0722 1.41376,-0.008 2.88198,0.14262 2.25999,0.23192 2.79006,0.21159 3.45542,-0.13247 0.80583,-0.41672 1.29642,-0.33161 1.30359,0.22614 0.01,0.74939 0.47586,1.09109 1.10322,0.80857 2.40589,-1.08346 4.1781,-2.01915 4.45404,-2.35164 0.17837,-0.21493 0.50185,-0.39078 0.71883,-0.39078 0.31666,0 0.35987,-0.23109 0.21894,-1.1709 -0.15237,-1.01607 -0.0469,-1.42719 0.79787,-3.10886 0.5354,-1.06587 1.31527,-2.32904 1.73304,-2.80705 0.41778,-0.478 0.75959,-1.01378 0.7596,-1.19062 0,-0.17684 0.40812,-0.64716 0.90692,-1.04515 l 0.90691,-0.72363 0.54829,0.88715 c 0.30156,0.48793 0.54829,0.98063 0.54829,1.09488 0,0.43381 1.59752,3.56627 1.81876,3.56627 0.12756,0 0.72575,-1.02915 1.32931,-2.287 0.60356,-1.25785 1.14584,-2.23853 1.20508,-2.17929 0.0592,0.0592 0.339,0.99908 0.6217,2.08856 0.29786,1.14793 0.66723,2.01055 0.87842,2.05149 0.75187,0.14572 2.63589,-2.66395 6.4343,-9.59564 2.15305,-3.92906 4.19218,-7.43268 4.53141,-7.78582 0.58495,-0.60895 0.67204,-0.62384 1.68773,-0.28863 1.17033,0.38625 2.58028,0.13131 3.59107,-0.64932 0.45181,-0.34892 0.46935,-0.44017 0.12722,-0.66159 -0.21829,-0.14127 -0.53075,-0.34954 -0.69437,-0.46283 -0.16362,-0.11328 -0.37917,-0.58262 -0.47901,-1.04296 -0.15738,-0.72568 -0.10023,-0.85896 0.42978,-1.00217 1.01673,-0.27473 4.70819,-2.11411 4.71034,-2.34707 0.001,-0.11961 -0.64064,-0.13718 -1.4261,-0.039 -1.51206,0.18893 -1.54527,0.17406 -3.20856,-1.43575 -0.80851,-0.78253 -0.81891,-0.98536 -0.0597,-1.16508 4.7395,-1.12192 7.75245,-2.74852 6.51158,-3.51542 -0.39957,-0.24695 2.84707,-3.28451 3.51058,-3.28451 0.36567,0 0.49284,-0.19014 0.48667,-0.72761 l -0.008,-0.7276 -0.59657,0.67663 c -1.02439,1.1619 -2.95985,1.91683 -5.25483,2.04969 l -2.06938,0.11979 v -0.94126 c 0,-0.92132 0.0322,-0.95007 1.52135,-1.3568 2.71327,-0.74109 2.84427,-0.80302 2.84427,-1.34455 0,-0.30997 -0.21323,-0.55884 -0.52916,-0.61762 -0.46314,-0.0862 -2.77813,-2.21879 -2.77813,-2.55928 0,-0.0702 0.26789,-0.12947 0.59532,-0.1317 0.88736,-0.006 1.27573,-0.35454 1.19588,-1.07314 -0.0642,-0.57786 0.0465,-0.65592 1.09867,-0.77489 1.31559,-0.14874 1.73712,-0.69988 0.7008,-0.91628 -0.37414,-0.0781 -0.98951,-0.20676 -1.3675,-0.28586 -0.58455,-0.12231 -0.66193,-0.24471 -0.51778,-0.81905 0.0932,-0.3714 0.0468,-0.8231 -0.10319,-1.00381 -0.19697,-0.23734 -0.0919,-0.4984 0.37858,-0.94036 0.57308,-0.53839 0.67135,-0.55943 0.81875,-0.17531 0.0921,0.24008 0.40235,0.43651 0.68939,0.43651 0.4399,0 0.49503,-0.12224 0.35095,-0.77824 -0.19002,-0.86517 0.22088,-1.8676 0.76554,-1.8676 0.19441,0 0.6367,-0.4159 0.98288,-0.92423 0.78491,-1.15255 1.34999,-1.17067 2.11948,-0.0679 0.33003,0.47294 0.75486,0.9551 0.94406,1.07148 0.1892,0.11637 0.34401,0.44379 0.34401,0.7276 0,0.32258 0.18047,0.51602 0.48144,0.51602 0.2648,0 0.74027,0.29766 1.05659,0.66146 0.31632,0.3638 0.70867,0.66146 0.87189,0.66146 0.18399,0 0.13438,0.24783 -0.13054,0.65215 -0.538,0.82108 -0.55397,1.7291 -0.0304,1.7291 0.21828,0 0.39688,-0.11907 0.39688,-0.26459 0,-0.14552 0.10791,-0.26458 0.23981,-0.26458 0.1319,0 0.17289,0.25593 0.0911,0.56873 -0.0985,0.37672 0.0189,0.69132 0.34786,0.93184 0.27312,0.19972 0.50003,0.6284 0.50423,0.95263 0.006,0.46664 0.1826,0.60647 0.84709,0.67089 0.52893,0.0513 0.99036,0.3117 1.2474,0.70399 0.43348,0.66157 2.05955,1.33974 2.65993,1.10935 0.19763,-0.0758 0.50632,-0.5927 0.68596,-1.1486 0.17965,-0.55589 0.72742,-1.3468 1.21726,-1.75757 1.04198,-0.87379 1.11521,-1.27783 0.29686,-1.63779 -0.91661,-0.40319 -0.87718,-1.06171 0.0875,-1.46129 1.12557,-0.46623 2.29071,-1.47351 2.76472,-2.39014 0.61752,-1.19416 0.49543,-1.50435 -0.66958,-1.70118 -0.58132,-0.0982 -1.12135,-0.28277 -1.20006,-0.41013 -0.0787,-0.12736 0.31056,-0.53179 0.86504,-0.89873 1.14748,-0.75936 3.12003,-3.00463 2.86433,-3.26033 -0.0933,-0.0933 -0.52229,-0.0262 -0.95329,0.14913 -0.43101,0.17533 -1.14387,0.46509 -1.58414,0.64391 -0.63495,0.2579 -0.89483,0.25711 -1.25677,-0.004 -0.25096,-0.18093 -0.78371,-0.45794 -1.18389,-0.6156 -0.40018,-0.15765 -0.7276,-0.3733 -0.7276,-0.47922 0,-0.34525 1.1616,-1.25241 2.55609,-1.99619 0.75101,-0.40057 1.75663,-1.13188 2.23472,-1.62514 l 0.86924,-0.89683 h -1.33381 c -0.98235,0 -1.45577,-0.13475 -1.79662,-0.51139 -0.656,-0.72487 -0.33085,-2.07816 0.58276,-2.42552 1.05137,-0.39971 3.23762,-2.09094 3.23762,-2.50453 0,-0.20311 -0.32743,-0.44751 -0.72761,-0.54311 -1.75221,-0.41858 -1.86503,-1.38614 -0.26458,-2.269 0.61846,-0.34116 1.12448,-0.7855 1.12448,-0.98742 0,-0.20192 -0.47863,-0.54164 -1.06361,-0.75493 -0.82356,-0.30028 -1.1622,-0.61866 -1.50045,-1.41072 l -0.43685,-1.02291 2.22806,-1.04411 c 1.22543,-0.57425 2.22806,-1.15567 2.22806,-1.29203 0,-0.13636 -0.47625,-0.32409 -1.05834,-0.41717 -1.11226,-0.17785 -1.36235,-0.63962 -0.66146,-1.22131 0.67646,-0.56141 0.44412,-0.79375 -0.79375,-0.79375 -1.066,0 -1.19062,-0.0637 -1.19062,-0.60854 0,-0.3347 -0.13629,-0.74483 -0.30285,-0.9114 -0.22742,-0.22741 -0.11209,-0.34276 0.46302,-0.46307 2.00294,-0.41901 2.33883,-0.57966 2.77798,-1.32871 0.25451,-0.43413 0.47267,-0.96791 0.48478,-1.1862 0.0261,-0.47093 1.99446,-1.35959 2.54418,-1.14864 0.58417,0.22416 0.45765,0.98617 -0.27857,1.67781 -0.86046,0.80836 -0.83811,1.11062 0.0661,0.8946 1.20119,-0.28695 1.45656,-0.63085 1.28147,-1.72576 -0.16448,-1.02861 0.25529,-1.69189 0.53113,-0.83925 0.48348,1.49441 0.74768,1.87984 1.6861,2.45982 0.56901,0.35167 1.10031,0.90133 1.18066,1.22147 0.0857,0.34162 0.48066,0.69871 0.95599,0.86441 0.44545,0.15528 1.13077,0.58165 1.52295,0.94747 0.39218,0.36583 0.94646,0.83295 1.23175,1.03804 0.45469,0.32688 0.47822,0.46172 0.19072,1.09271 -0.27544,0.60452 -0.44327,0.69326 -1.04786,0.55404 -0.39594,-0.0912 -1.40171,-0.21302 -2.23504,-0.27078 l -1.51515,-0.105 0.97581,1.16739 c 0.5367,0.64206 1.15898,1.22663 1.38286,1.29906 0.22387,0.0724 0.60115,0.47397 0.83839,0.89234 0.23723,0.41838 1.03398,1.08868 1.77055,1.48957 2.0723,1.12789 2.10047,1.90134 0.0791,2.17246 -1.41857,0.19027 -1.4039,0.68315 0.0478,1.60376 0.62597,0.39698 1.16566,0.81842 1.19931,0.93655 0.0849,0.29811 -2.32109,1.54635 -2.62207,1.36033 -0.13449,-0.0831 -0.24453,-0.007 -0.24453,0.16971 0,0.49342 1.99254,2.21989 3.17997,2.75534 l 1.06135,0.47861 -0.93003,0.66173 c -1.01848,0.72465 -1.21171,1.58066 -0.51426,2.27811 0.51609,0.51609 0.73541,0.51816 1.70618,0.0162 0.89723,-0.46397 1.57502,-1.49896 1.08795,-1.66132 -0.16806,-0.056 -0.42383,-0.32284 -0.56838,-0.59295 -0.20582,-0.38457 -0.11619,-0.64933 0.4132,-1.22055 0.61315,-0.6616 0.75043,-0.70137 1.47577,-0.42759 0.43985,0.16603 0.9755,0.23442 1.19032,0.15199 0.5926,-0.22741 0.31545,-0.9653 -0.43054,-1.14625 l -0.66007,-0.1601 0.59531,-0.32383 c 0.32742,-0.1781 0.59531,-0.54318 0.59531,-0.81128 0,-0.59798 0.7335,-1.26043 1.02385,-0.92469 2.6048,3.01205 3.42846,4.27739 3.51478,5.39952 0.0795,1.03405 0.0203,1.20082 -0.45006,1.26814 -0.2979,0.0426 -0.95274,-0.20109 -1.45521,-0.54159 -0.51087,-0.34621 -1.34166,-0.63098 -1.88475,-0.64605 -0.83603,-0.0232 -1.0159,0.081 -1.29251,0.74883 -0.17673,0.42667 -0.68857,1.06317 -1.13742,1.41444 -0.44884,0.35128 -0.75413,0.70064 -0.6784,0.77636 0.25723,0.25723 2.22569,-0.48588 2.58358,-0.97531 0.53168,-0.72711 1.99627,-0.52844 2.11177,0.28646 0.0477,0.33632 0.28579,0.68575 0.52917,0.77651 0.71135,0.26527 3.03796,1.69653 3.66113,2.25222 0.38986,0.34764 0.75687,0.45235 1.14912,0.32786 0.49279,-0.15641 0.55183,-0.3134 0.40739,-1.08331 -0.15619,-0.83255 -0.11817,-0.9004 0.50453,-0.9004 0.55069,0 0.67916,-0.13263 0.70478,-0.7276 0.0172,-0.40018 0.008,-0.84563 -0.0213,-0.98988 -0.0289,-0.14425 0.0951,-0.7098 0.2756,-1.25677 0.22682,-0.68728 0.48411,-0.9945 0.83286,-0.9945 0.38994,0 0.46513,0.1245 0.3308,0.54774 -0.13133,0.41378 -0.0397,0.5828 0.37446,0.69112 0.58261,0.15236 1.35123,1.4273 1.35123,2.24138 0,0.37047 0.19926,0.48851 0.8246,0.48851 0.7026,0 0.80047,0.0783 0.66146,0.52917 -0.54616,1.77145 -0.55362,1.6824 0.12581,1.50061 0.35038,-0.0938 0.77644,-0.17209 0.94678,-0.17408 0.17034,-0.002 0.39418,-0.39057 0.49739,-0.86351 0.26789,-1.22734 1.3108,-3.41631 1.52543,-3.20168 0.0996,0.0996 0.18103,26.35493 0.18103,58.34526 l -1e-5,58.16422 H 212.23541 76.76875 Z M 298.75416,226.718 c 0,-0.14553 -0.11907,-0.26459 -0.26459,-0.26459 -0.14552,0 -0.26458,0.11906 -0.26458,0.26459 0,0.14552 0.11906,0.26458 0.26458,0.26458 0.14552,0 0.26459,-0.11906 0.26459,-0.26458 z m -1.05834,-3.53948 c 0,-0.45598 -0.36208,-0.72818 -1.79471,-1.34922 -0.86352,-0.37433 -1.20674,-0.41777 -1.44198,-0.18253 -0.41368,0.41368 0.0107,0.82484 1.45859,1.41303 1.38007,0.56064 1.7781,0.58722 1.7781,0.11872 z m -5.87721,-0.99338 c 0.0628,-0.32617 -0.0757,-0.3956 -0.59227,-0.29685 -0.67777,0.12956 -0.83281,0.34963 -0.48873,0.69371 0.30855,0.30856 0.99358,0.0571 1.081,-0.39686 z m 1.64388,-1.56934 c 0,-0.71937 -0.43386,-0.85162 -1.18315,-0.36066 -0.82594,0.54117 -0.84614,0.85651 -0.0736,1.14924 0.69825,0.2646 1.25677,-0.0859 1.25677,-0.78858 z m -0.59519,-6.26708 c 0.0722,-0.21688 -0.1707,-0.33072 -0.70568,-0.33072 -0.81843,0 -1.10411,0.36607 -0.48507,0.62156 0.5111,0.21094 1.06905,0.0747 1.19075,-0.29084 z m -157.89022,-2.18281 c 0,-0.14552 -0.11906,-0.26458 -0.26458,-0.26458 -0.14552,0 -0.26459,0.11906 -0.26459,0.26458 0,0.14552 0.11907,0.26459 0.26459,0.26459 0.14552,0 0.26458,-0.11907 0.26458,-0.26459 z m 177.6677,0 c -0.0899,-0.14552 -0.27556,-0.26458 -0.41249,-0.26458 -0.13693,0 -0.24897,0.11906 -0.24897,0.26458 0,0.14552 0.18562,0.26459 0.41249,0.26459 0.22687,0 0.33891,-0.11907 0.24897,-0.26459 z m 17.54099,-3.88695 c 0.33421,-0.36805 0.5649,-0.79747 0.51263,-0.95426 -0.20264,-0.60794 -0.74322,-0.45812 -1.18614,0.32874 -0.56431,1.00253 -1.41499,1.27026 -2.2276,0.70109 -0.81947,-0.57398 -1.60655,-0.55234 -1.49396,0.0411 0.0647,0.34082 0.43638,0.5035 1.40846,0.61638 1.73196,0.20113 2.2549,0.0728 2.98661,-0.73302 z m -224.84202,-2.59534 c 0,-0.21828 -0.1786,-0.39687 -0.39688,-0.39687 -0.41316,0 -0.52492,0.31292 -0.22048,0.61736 0.30444,0.30444 0.61736,0.19268 0.61736,-0.22049 z m 221.19165,-0.66146 c 0,-0.14552 -0.11906,-0.26458 -0.26458,-0.26458 -0.14552,0 -0.26458,0.11906 -0.26458,0.26458 0,0.14552 0.11906,0.26459 0.26458,0.26459 0.14552,0 0.26458,-0.11907 0.26458,-0.26459 z m -214.49353,-0.84648 c 0.31786,-0.17452 0.84625,-0.28501 1.17422,-0.24552 0.67354,0.0811 1.13365,-0.69134 0.60604,-1.01742 -0.18149,-0.11217 -0.89257,-0.17358 -1.58018,-0.13648 -1.05279,0.0568 -1.51774,0.20678 -2.63643,0.85045 -0.0571,0.0329 0.0468,0.24122 0.23084,0.46302 0.40127,0.4835 1.40988,0.5228 2.20551,0.0859 z m 203.11645,-1.79935 c 0,-0.14552 -0.17156,-0.26458 -0.38126,-0.26458 -0.20969,0 -0.45484,0.11906 -0.54478,0.26458 -0.0899,0.14552 0.0816,0.26458 0.38126,0.26458 0.29963,0 0.54478,-0.11906 0.54478,-0.26458 z m 14.15521,-0.52917 c 0.0899,-0.14552 -0.0221,-0.26458 -0.24897,-0.26458 -0.22687,0 -0.41249,0.11906 -0.41249,0.26458 0,0.14552 0.11204,0.26459 0.24897,0.26459 0.13693,0 0.32255,-0.11907 0.41249,-0.26459 z m 4.10104,-0.49677 c 0,-0.1277 -0.18364,-0.38459 -0.40809,-0.57087 -0.46547,-0.3863 -1.10028,0.0243 -0.79678,0.51542 0.21178,0.34267 1.20487,0.38837 1.20487,0.0555 z M 96.215624,197.61383 c 0.08994,-0.14552 0.03743,-0.26458 -0.116677,-0.26458 -0.154109,0 -0.280198,0.11906 -0.280198,0.26458 0,0.14552 0.0525,0.26458 0.116677,0.26458 0.06417,0 0.190261,-0.11906 0.280198,-0.26458 z m -3.836454,-6.74687 c 0.41469,-0.49968 0.25829,-0.50004 -0.69736,-0.002 -0.65686,0.34257 -0.68284,0.39546 -0.19494,0.39687 0.30961,8.6e-4 0.71114,-0.177 0.8923,-0.39528 z m -5.82084,-6.35 c -0.18115,-0.21829 -0.44844,-0.39688 -0.59396,-0.39688 -0.14759,0 -0.11894,0.17549 0.0648,0.39688 0.18115,0.21828 0.44844,0.39687 0.59396,0.39687 0.14759,0 0.11894,-0.17549 -0.0648,-0.39687 z m 226.61562,-0.66146 c 0.0899,-0.14552 -0.0221,-0.26459 -0.24897,-0.26459 -0.22687,0 -0.41249,0.11907 -0.41249,0.26459 0,0.14552 0.11203,0.26458 0.24897,0.26458 0.13693,0 0.32255,-0.11906 0.41249,-0.26458 z M 107.725,176.56676 c 0,-0.22502 -1.42477,-1.42476 -1.70315,-1.43415 -0.13636,-0.005 0.0943,0.34883 0.51252,0.78539 0.70296,0.73373 1.19063,0.99946 1.19063,0.64876 z M 84.55232,172.5824 c 0.45781,-0.17568 0.56163,-0.77805 0.17526,-1.01684 -0.31689,-0.19585 -1.13004,0.61729 -0.93419,0.93419 0.17776,0.28761 0.2144,0.2916 0.75893,0.0827 z m 18.09581,-4.4065 c 0.0605,-0.314 -0.0806,-0.45999 -0.44437,-0.45999 -0.60678,0 -0.94281,0.39517 -0.68742,0.8084 0.25752,0.41667 1.03026,0.17878 1.13179,-0.34841 z m 1.24041,-2.04749 c 0,-0.19402 -0.14883,-0.40238 -0.33073,-0.46302 -0.19674,-0.0656 -0.33073,0.12201 -0.33073,0.46302 0,0.34102 0.13399,0.52861 0.33073,0.46303 0.1819,-0.0606 0.33073,-0.269 0.33073,-0.46303 z m -0.19293,-3.38997 c 0.0576,-0.17281 -0.0838,-0.31419 -0.31419,-0.31419 -0.23041,0 -0.41892,0.18851 -0.41892,0.41892 0,0.46724 0.56958,0.38587 0.73311,-0.10473 z m 1.25126,-1.90169 c 0.0899,-0.14552 -0.0221,-0.26458 -0.24896,-0.26458 -0.22687,0 -0.4125,0.11906 -0.4125,0.26458 0,0.14552 0.11204,0.26458 0.24897,0.26458 0.13693,0 0.32256,-0.11906 0.41249,-0.26458 z m 51.29677,72.94947 -0.56155,-0.32135 0.65337,-1.5029 c 0.75629,-1.73963 1.315,-2.09419 1.98878,-1.2621 0.64584,0.79758 0.58138,1.43748 -0.19612,1.94692 -0.3638,0.23837 -0.66146,0.66878 -0.66146,0.95647 0,0.59256 -0.40213,0.65272 -1.22302,0.18296 z m -1.66202,-1.49629 c -0.39985,-0.24713 -0.21569,-1.07402 0.23921,-1.07402 0.38739,0 0.65244,0.77631 0.36365,1.0651 -0.13269,0.13269 -0.39628,0.13659 -0.60286,0.009 z m 192.87674,-29.80336 c 0.0127,-0.30822 0.0754,-0.37092 0.15986,-0.15985 0.0764,0.191 0.067,0.4192 -0.0209,0.50712 -0.0879,0.0879 -0.15047,-0.0683 -0.13898,-0.34727 z m -26.34691,-22.06412 c -0.29105,-0.12146 -0.77194,-0.16602 -1.06866,-0.099 -1.07852,0.24355 -1.8212,-0.30404 -2.21206,-1.63101 -0.22834,-0.77519 -0.55099,-1.30441 -0.8416,-1.3804 -0.2592,-0.0678 -0.53532,-0.29011 -0.61358,-0.49405 -0.20184,-0.52601 -0.69977,-0.46406 -2.31543,0.28807 -1.43524,0.66813 -2.77326,0.88421 -2.47367,0.39946 0.0899,-0.14552 -0.0897,-0.26459 -0.39909,-0.26459 -0.79307,0 -0.47408,-0.94143 0.69023,-2.03703 0.49471,-0.46552 0.89948,-1.09105 0.89948,-1.39007 0,-0.45075 0.14696,-0.53218 0.8599,-0.47651 0.71084,0.0555 0.85204,-0.022 0.81458,-0.44724 -0.0618,-0.70197 0.84791,-2.42433 1.39049,-2.63254 0.59038,-0.22655 1.07088,0.21214 1.2582,1.14871 0.10812,0.5406 0.33301,0.79347 0.75949,0.85396 0.41408,0.0587 0.60095,0.25838 0.59031,0.63068 -0.0108,0.37801 0.14598,0.53997 0.51227,0.52916 0.80566,-0.0238 1.75226,1.55692 1.75226,2.92605 0,0.96384 0.12476,1.23581 0.79375,1.73042 0.64049,0.47354 0.79375,0.78158 0.79375,1.59542 0,1.04488 -0.19334,1.16676 -1.19062,0.75053 z m -4.8948,-5.43049 c 0,-0.21829 -0.17859,-0.39688 -0.39687,-0.39688 -0.21828,0 -0.39688,0.17859 -0.39688,0.39688 0,0.21828 0.1786,0.39687 0.39688,0.39687 0.21828,0 0.39687,-0.17859 0.39687,-0.39687 z"
         id="path805" /></g></g></svg>
