<?xml version="1.0" encoding="UTF-8" standalone="no"?>
<!-- Created with Inkscape (http://www.inkscape.org/) -->

<svg
   width="266.9938mm"
   height="158.76352mm"
   viewBox="0 0 266.9938 158.76352"
   version="1.1"
   id="svg5"
   xml:space="preserve"
   xmlns="http://www.w3.org/2000/svg"
   xmlns:svg="http://www.w3.org/2000/svg"><defs
     id="defs2" /><g
     id="layer1"
     transform="translate(-377.35313,-182.16418)"><path
       style="fill:#e1e1e1;fill-opacity:1;stroke-width:0.264999;stroke-dasharray:none"
       d="m 483.20261,199.3322 c 0,0 1.77975,-8.45382 10.6785,-12.01332 8.89876,-3.55951 9.66603,-5.15469 15.17185,-5.15469 5.50582,0 11.6409,0.47193 15.57364,2.98888 3.93271,2.51695 6.9216,5.34852 8.8093,8.18009 1.88772,2.83156 3.30351,4.09004 5.03391,7.86546 1.7304,3.77542 4.40465,8.65201 4.71926,13.5286 0.31462,4.87659 1.10117,10.38242 -3.30348,18.71981 -4.40468,8.3374 -6.44969,13.68591 -14.62976,15.57362 -8.1801,1.88772 -19.50636,3.93274 -28.78762,-0.62923 -9.28124,-4.56197 -18.87712,-18.5625 -19.66365,-25.48411 -0.78655,-6.92161 6.39805,-23.57511 6.39805,-23.57511 z"
       id="path9774" /><path
       style="fill:#e1e1e1;fill-opacity:1;stroke-width:0.122097;stroke-dasharray:none"
       d="m 403.20257,338.17922 c 0,0 7.12299,-0.44838 42.74035,-0.63717 35.61736,-0.18879 38.68846,-0.2734 60.72559,-0.2734 22.03713,0 46.59269,0.025 62.33341,0.15853 15.74072,0.1335 27.70347,0.28367 35.25941,0.43386 7.55531,0.15018 13.22227,0.21693 20.14813,0.41717 6.92587,0.20024 17.6297,0.45889 18.88862,0.71753 1.2577,0.25866 4.40803,0.55067 -13.22228,0.99287 -17.62969,0.44221 -25.81447,0.72589 -58.55544,0.826 -32.74095,0.10013 -78.07412,0.20859 -115.22251,-0.0333 -37.14777,-0.24196 -75.55566,-0.98453 -78.70358,-1.35164 -3.15031,-0.36711 25.6083,-1.25039 25.6083,-1.25039 z"
       id="path10100" /></g></svg>
