<?xml version="1.0" encoding="UTF-8" standalone="no"?>
<!-- Created with Inkscape (http://www.inkscape.org/) -->

<svg
   width="270.93314mm"
   height="147.90793mm"
   viewBox="0 0 270.93314 147.90793"
   version="1.1"
   id="svg5"
   xml:space="preserve"
   xmlns="http://www.w3.org/2000/svg"
   xmlns:svg="http://www.w3.org/2000/svg"><defs
     id="defs2" /><g
     id="layer1"
     transform="translate(-374.87718,-192.67556)"><g
       id="g922"><path
         style="fill:#4e313a;stroke-width:0.264583"
         d="m 374.87718,269.01327 c 0,-43.19924 0.0961,-71.56979 0.24253,-71.56979 0.50738,0 0.74971,-1.43038 0.3474,-2.05052 -0.24866,-0.38329 -0.28113,-0.59531 -0.0912,-0.59531 0.16225,0 0.29501,-0.21163 0.29501,-0.4703 0,-0.70407 0.75616,-1.64637 1.32116,-1.64637 14.51154,-0.51488 50.8371,35.83416 65.03868,47.0959 0.11771,0 0.44064,0.1657 0.71762,0.36824 0.43806,0.32032 0.45546,0.42625 0.13373,0.81391 -0.3173,0.38232 -0.31587,0.47985 0.01,0.68604 0.20893,0.1322 0.5812,0.24219 0.82727,0.24442 0.56423,0.005 0.88489,0.49738 0.54523,0.83705 -0.42612,0.42611 0.0204,1.92962 0.60538,2.03823 0.28526,0.053 0.73165,0.32157 0.99198,0.59691 0.26033,0.27534 0.81935,0.50061 1.24226,0.50061 0.42291,0 2.41257,0.24668 4.42146,0.54818 2.00889,0.3015 4.73373,0.64589 6.05521,0.76531 3.78696,0.34221 10.16067,2.91886 14.13378,5.71375 1.65924,1.16719 5.48204,3.10402 5.77238,2.92459 0.4619,-0.28547 4.1623,0.94306 7.45016,2.47345 3.78265,1.7607 5.65492,2.2668 13.23579,3.57778 25.26712,4.36952 27.77719,4.73548 29.74753,4.33713 0.73756,-0.14912 2.45321,-0.82164 3.81257,-1.49449 l 2.47155,-1.22337 1.89407,0.48066 c 1.04174,0.26436 5.16829,1.62245 9.17011,3.01798 10.41554,3.63213 11.07247,3.61645 19.44688,-0.46444 3.3758,-1.64504 5.0409,-2.73377 9.34006,-6.10698 1.52545,-1.1969 2.53338,-1.58496 4.11665,-1.58496 0.90477,0 1.00809,-0.0639 0.88214,-0.54552 -0.10707,-0.40946 0.0667,-0.67318 0.69675,-1.05735 0.46167,-0.2815 1.08453,-0.51227 1.38414,-0.51281 0.59397,-0.001 1.80154,-0.77224 1.23133,-0.78633 -0.37177,-0.009 -2.56558,-2.16933 -2.96934,-2.92377 -0.33759,-0.63078 0.0384,-0.88202 1.98702,-1.32757 2.86726,-0.65561 3.9679,-1.1475 3.97665,-1.77718 0.004,-0.31277 0.27224,-0.85004 0.59531,-1.19394 0.32308,-0.34389 0.58741,-0.70121 0.58741,-0.79402 0,-0.0928 -0.74305,-0.20421 -1.65122,-0.24753 -1.46622,-0.07 -1.68547,-0.15289 -1.95682,-0.74023 -0.16807,-0.36381 -0.2469,-1.03505 -0.17518,-1.49165 0.11362,-0.72341 0.25913,-0.85077 1.13136,-0.99024 1.3741,-0.21973 2.0324,-1.19332 1.54753,-2.28871 -0.18808,-0.42491 -0.66284,-0.90547 -1.05501,-1.06791 6.83496,-11.66662 51.30262,-9.28711 59.60396,-16.93267 0.49273,-0.6067 1.03505,-1.24954 1.20515,-1.42853 0.17007,-0.17898 0.3606,-0.67101 0.42336,-1.0934 0.0628,-0.42238 0.13197,26.16992 0.15378,59.09401 l 0.0396,59.86199 H 510.34384 374.87718 Z"
         id="path926" /></g></g></svg>
