<?xml version="1.0" encoding="UTF-8" standalone="no"?>
<!-- Created with Inkscape (http://www.inkscape.org/) -->

<svg
   width="276.46951mm"
   height="258.45151mm"
   viewBox="0 0 276.46951 258.45151"
   version="1.1"
   id="svg5"
   xml:space="preserve"
   xmlns="http://www.w3.org/2000/svg"
   xmlns:svg="http://www.w3.org/2000/svg"><defs
     id="defs2" /><g
     id="layer1"
     transform="translate(-373.77219,-122.59639)"><g
       id="g1007"
       transform="translate(192.2132,-64.071065)"><path
         d="m 349.93744,229.50705 c 0,-0.48348 3.237,-3.69336 4.43152,-4.3944 0.89766,-0.52681 1.51088,-0.66599 3.04271,-0.69057 1.63539,-0.0263 2.18201,0.0921 3.70442,0.80215 0.98226,0.45812 1.78593,0.89575 1.78593,0.97252 0,0.0768 -0.25428,0.27567 -0.56508,0.442 -0.42747,0.22877 -0.95905,0.22191 -2.18281,-0.0282 -0.88975,-0.18184 -1.73084,-0.4328 -1.86909,-0.55769 -0.3545,-0.32028 -1.20385,-0.2828 -1.20385,0.0531 0,0.15411 -0.10889,0.21289 -0.24198,0.13064 -0.1331,-0.0823 -0.28192,-0.0387 -0.33073,0.0968 -0.0488,0.13552 -0.26319,0.28509 -0.4764,0.33238 -0.21321,0.0473 -0.57039,0.2893 -0.79375,0.5378 -0.59733,0.66456 -4.13908,2.5909 -4.76361,2.5909 -0.2955,0 -0.53728,-0.12937 -0.53728,-0.28748 z m -130.02065,-2.82138 c -0.10914,-0.10914 -0.3052,-0.19843 -0.43568,-0.19843 -0.3758,0 -2.62908,-2.56354 -2.62908,-2.99109 0,-0.30692 0.2301,-0.34762 1.12448,-0.19889 2.04497,0.34007 2.57969,0.36189 2.57969,0.1053 0,-0.13962 0.11906,-0.18026 0.26458,-0.0903 0.14552,0.0899 0.26458,0.0643 0.26458,-0.0569 0,-0.12125 0.54716,-0.21757 1.2159,-0.21405 0.66875,0.004 1.27109,-0.0829 1.33854,-0.19204 0.0674,-0.10914 0.35373,-0.19844 0.63618,-0.19844 0.6805,0 0.67156,0.83332 -0.0156,1.45521 -0.29104,0.26339 -0.52917,0.39816 -0.52917,0.29949 0,-0.3071 -1.41405,0.67473 -2.30161,1.59808 -0.86396,0.89881 -1.1618,1.03311 -1.5128,0.68211 z m 194.04981,-2.23078 c -0.82005,-0.40713 -1.68472,-0.59459 -2.77812,-0.60229 -2.20592,-0.0156 -2.15142,-0.59907 0.13229,-1.41632 1.4302,-0.51181 1.87573,-0.56857 2.64583,-0.33707 1.79055,0.53826 2.18486,0.4734 3.08086,-0.50676 0.82783,-0.9056 0.89173,-0.92605 2.89351,-0.92605 2.70172,0 2.82746,0.40655 0.46417,1.50078 -0.99458,0.46051 -1.92739,0.85241 -2.07291,0.87091 -0.14552,0.0185 -0.24009,0.16123 -0.21015,0.3172 0.0954,0.49698 -1.13743,1.42856 -2.06701,1.56191 -0.60659,0.087 -1.28407,-0.063 -2.08847,-0.46231 z m -27.51666,-0.70106 c 0,-0.2818 3.62555,-3.7894 4.49792,-4.35159 0.93087,-0.59989 4.63258,-1.31977 5.6466,-1.09811 1.58308,0.34607 4.54002,1.66731 4.6225,2.06545 0.12551,0.60594 -1.50595,0.80212 -3.81482,0.45872 -1.09792,-0.1633 -2.21348,-0.41317 -2.47902,-0.55528 -0.35746,-0.19131 -0.52184,-0.15662 -0.63322,0.13364 -0.0827,0.21562 -0.36581,0.39204 -0.62904,0.39204 -0.26322,0 -0.71975,0.16891 -1.01449,0.37535 -0.29474,0.20644 -1.5701,0.92082 -2.83415,1.5875 -2.16234,1.14046 -3.36228,1.49459 -3.36228,0.99228 z m -104.2812,-5.572 c -0.5895,-0.4637 -1.68234,-0.84556 -3.47036,-1.21261 -0.9137,-0.18756 -0.93124,-0.587 -0.0435,-0.99147 0.54927,-0.25027 1.03433,-0.22146 2.46152,0.14619 1.61582,0.41625 1.86562,0.42105 2.74701,0.0528 1.42709,-0.59628 2.39961,-0.50078 4.21071,0.41345 1.88193,0.95 1.69205,1.39773 -0.36634,0.86379 -1.56942,-0.4071 -2.4347,-0.25593 -3.47343,0.60685 -0.90515,0.75183 -1.23879,0.77138 -2.06559,0.12102 z m 98.6777,-5.91595 c -0.35457,-0.3354 -1.99055,-0.38684 -2.77155,-0.0871 -0.63724,0.24453 -2.20828,-0.11953 -2.20828,-0.51173 0,-0.18785 0.35718,-0.46606 0.79375,-0.61825 0.43656,-0.15219 0.79375,-0.20879 0.79375,-0.12578 0,0.083 0.17707,0.004 0.3935,-0.17565 0.21643,-0.17962 0.5698,-0.25893 0.78528,-0.17625 0.21547,0.0827 0.47007,0.0237 0.56577,-0.13119 0.1051,-0.17006 0.58491,-0.21582 1.21183,-0.11557 0.92783,0.14836 1.1091,0.0813 1.71008,-0.63296 0.36973,-0.4394 0.84025,-0.79891 1.0456,-0.79891 0.20534,0 0.37335,-0.12609 0.37335,-0.2802 0,-0.15411 0.11907,-0.20662 0.26459,-0.11668 0.14552,0.0899 0.26458,0.0176 0.26458,-0.16077 0,-0.17837 0.0783,-0.24596 0.17409,-0.1502 0.0958,0.0958 0.30411,0.0695 0.46302,-0.0583 0.41091,-0.33048 2.53789,-0.6482 2.53789,-0.37911 0,0.24218 -0.94403,0.90006 -1.23198,0.85856 -0.0966,-0.0139 -0.28298,0.16645 -0.41414,0.40083 -0.13117,0.23438 -0.35023,0.35708 -0.48681,0.27267 -0.13658,-0.0844 -0.24832,-0.0204 -0.24832,0.14234 0,0.1627 -0.0893,0.24092 -0.19844,0.17383 -0.10914,-0.0671 -0.49609,0.29822 -0.85989,0.8118 -1.49968,2.11712 -2.21152,2.56446 -2.95767,1.85864 z m -143.09233,-0.188 c 0,-0.13979 0.20027,-0.40768 0.44504,-0.59531 0.24476,-0.18764 1.058,-0.96624 1.80718,-1.73023 0.74918,-0.76398 1.50515,-1.38906 1.67994,-1.38906 0.17478,0 0.38605,-0.17791 0.4695,-0.39536 0.0834,-0.21744 0.2583,-0.32948 0.38857,-0.24896 0.13027,0.0805 0.23686,0.0401 0.23686,-0.0897 0,-0.24241 0.2141,-0.29209 1.5875,-0.36839 0.43656,-0.0243 0.79375,-0.11699 0.79375,-0.20609 0,-0.0891 0.65484,-0.17017 1.4552,-0.18017 0.80037,-0.01 1.45521,0.0955 1.45521,0.23439 0,0.13892 0.1786,0.18405 0.39688,0.10028 0.21828,-0.0838 0.39687,-0.0299 0.39687,0.1196 0,0.14955 0.11907,0.19831 0.26459,0.10838 0.14552,-0.0899 0.41341,-0.069 0.59531,0.0465 0.1819,0.1155 0.42002,0.22671 0.52917,0.24712 0.10914,0.0204 0.2282,0.0611 0.26458,0.0904 0.0364,0.0293 0.29727,0.0966 0.57975,0.14938 1.33315,0.24934 1.73535,0.43233 1.73535,0.78949 0,0.44644 -0.74299,0.6715 -2.24896,0.68122 -1.04938,0.007 -2.5237,-0.14741 -2.77812,-0.29052 -0.0728,-0.0409 -0.25135,-0.10208 -0.39688,-0.13589 -0.14552,-0.0338 -0.32411,-0.0832 -0.39687,-0.10985 -0.61129,-0.22354 -1.85208,-0.22007 -1.85208,0.005 0,0.15289 -0.11907,0.20439 -0.26459,0.11445 -0.14552,-0.0899 -0.26458,-0.0412 -0.26458,0.10838 0,0.14954 -0.16939,0.20689 -0.37642,0.12745 -0.20703,-0.0795 -0.62375,0.10288 -0.92604,0.40517 -0.30229,0.30229 -0.66869,0.54962 -0.81421,0.54962 -0.14552,0 -0.26458,0.12609 -0.26458,0.2802 0,0.15411 -0.10889,0.2129 -0.24199,0.13064 -0.13309,-0.0823 -0.28368,-0.0245 -0.33464,0.12844 -0.051,0.15289 -0.35879,0.29803 -0.68406,0.32253 -0.32526,0.0245 -0.59139,0.12471 -0.59139,0.22268 0,0.24316 -1.69917,1.03218 -2.2228,1.03218 -0.23267,0 -0.42304,-0.11437 -0.42304,-0.25415 z m 103.17205,-6.8759 c -1.13858,-0.34549 -1.83663,-0.80676 -1.83663,-1.21363 0,-0.21317 0.23812,-0.38757 0.52916,-0.38757 0.29104,0 0.52917,0.11533 0.52917,0.25628 0,0.14095 0.16655,0.19237 0.37011,0.11425 0.20356,-0.0781 0.4455,-0.02 0.53764,0.12904 0.0921,0.14909 0.34231,0.204 0.55593,0.12203 0.21362,-0.082 0.3884,-0.0338 0.3884,0.10715 0,0.14091 0.29766,0.1993 0.66146,0.12976 0.38612,-0.0738 0.66146,-0.003 0.66146,0.16898 0,0.16248 0.12609,0.29543 0.2802,0.29543 0.15411,0 0.19706,-0.13451 0.0955,-0.29891 -0.10502,-0.16992 -0.0488,-0.2536 0.13026,-0.19391 0.17325,0.0577 1.05303,-0.58707 1.95506,-1.43294 2.18272,-2.0468 2.51352,-2.22684 2.41325,-1.31348 -0.0427,0.38935 -0.26211,0.84275 -0.48748,1.00755 -0.22538,0.1648 -0.34299,0.36642 -0.26136,0.44806 0.0816,0.0816 -0.49658,0.6354 -1.28492,1.2306 -1.31647,0.99395 -1.56084,1.08034 -2.99681,1.05945 -0.8599,-0.0125 -1.86806,-0.11517 -2.24036,-0.22814 z M 182.66073,404.51092 c 5.96813,-0.10887 16.99859,-17.80091 1.78627,-20.0324 -9.21952,-1.3524 220.23804,4.62718 267.79731,4.74399 -2.59133,7.44984 4.74501,13.95224 1.23714,15.75762 -2.0935,1.07746 -54.7601,1.24418 -66.34923,1.10587 -78.37621,-0.93533 -124.61061,-1.84683 -204.47149,-1.57508 z M 393.98584,193.9027 c -0.57949,-0.38624 -1.1052,-0.74541 -1.16826,-0.79816 -0.0631,-0.0528 0.0162,-0.22674 0.17606,-0.38663 0.21123,-0.21123 0.52497,-0.17385 1.14749,0.1367 1.13313,0.56528 1.50335,0.53296 2.75985,-0.24094 0.58208,-0.35851 1.27903,-0.65246 1.54876,-0.6532 0.41195,-10e-4 0.35324,0.15741 -0.36692,0.99083 -0.85107,0.98493 -1.87109,1.61881 -2.64178,1.64171 -0.22088,0.007 -0.87572,-0.30407 -1.4552,-0.69031 z m -75.13667,-0.62024 c -0.24238,-0.39218 -0.38083,-0.30015 2.55613,-1.69904 1.58254,-0.75378 2.99364,-1.64864 3.70417,-2.34905 1.3462,-1.32703 2.97838,-2.56692 3.37907,-2.56692 0.60579,0 0.20485,0.6241 -1.74607,2.71792 -2.09406,2.24744 -3.83957,3.33383 -6.01098,3.74119 -0.54677,0.10257 -1.15222,0.24716 -1.34545,0.32131 -0.19323,0.0742 -0.43482,-2.6e-4 -0.53687,-0.16541 z m 37.7776,-4.23873 c -0.90044,-0.4393 -1.70165,-0.90308 -1.78047,-1.03061 -0.31047,-0.50235 0.72603,-0.51321 1.97554,-0.0207 1.2444,0.4905 1.3671,0.49498 2.23396,0.0816 0.65549,-0.31258 1.07724,-0.366 1.47793,-0.18721 0.51996,0.23201 0.4651,0.31213 -0.75528,1.10291 -0.72379,0.46899 -1.36065,0.85272 -1.41524,0.85272 -0.0546,0 -0.836,-0.35943 -1.73644,-0.79872 z"
         style="fill:#120804;fill-opacity:1;stroke-width:0.264583"
         id="path1033" /></g></g></svg>
