<?xml version="1.0" encoding="UTF-8" standalone="no"?>
<!-- Created with Inkscape (http://www.inkscape.org/) -->

<svg
   width="270.93314mm"
   height="152.66455mm"
   viewBox="0 0 270.93314 152.66455"
   version="1.1"
   id="svg5"
   xml:space="preserve"
   xmlns="http://www.w3.org/2000/svg"
   xmlns:svg="http://www.w3.org/2000/svg"><defs
     id="defs2" /><g
     id="layer1"
     transform="translate(-374.82664,-188.62817)"><g
       id="g989"
       transform="translate(352.37288,-93.756356)"><path
         style="fill:#aa6158;stroke-width:0.264583"
         d="m 22.453772,358.71682 c 0,-41.98276 0.10061,-76.33229 0.22358,-76.33229 0.12296,0 0.45038,0.25555 0.7276,0.5679 0.67788,0.76378 2.49411,2.07793 2.87182,2.07793 0.16722,0 0.44864,-0.38695 0.62539,-0.85989 3.17673,16.80642 25.66813,17.48976 53.27927,10.63925 l 1.49704,1.28305 c 0.82337,0.70568 2.18002,1.7821 3.01478,2.39205 0.83477,0.60995 2.26352,1.79989 3.175,2.64433 3.61716,3.35107 4.8192,3.85989 8.52223,3.6075 l 2.79146,-0.19027 4.035318,2.05038 c -0.62949,5.81881 14.75154,3.00564 15.28012,10.93068 0,0.42239 0.23445,0.97059 0.52916,1.2373 0.29104,0.26339 0.52917,0.62911 0.52917,0.81271 0,0.1836 0.12024,0.3739 0.2672,0.42289 0.14697,0.049 0.31846,0.3552 0.3811,0.68048 0.13843,0.71881 1.34446,2.34538 1.89588,2.55699 0.21988,0.0844 0.32567,0.27331 0.2351,0.41986 -0.0906,0.14654 -0.0316,0.26645 0.13114,0.26645 0.16269,0 0.22731,0.11083 0.14359,0.2463 -0.0837,0.13547 -0.0312,0.32109 0.11667,0.41249 0.1479,0.0914 0.27286,0.36752 0.2777,0.61359 0.0202,1.02842 0.9994,1.61131 4.91404,2.92531 6.8891,2.31243 9.85031,2.66102 19.8157,2.33268 4.34039,-0.143 6.41162,-0.74833 9.43155,-2.75645 l 1.79611,-1.19433 3.24971,-0.24385 c 13.74673,0.66496 26.63955,-11.36965 34.51852,-22.654 0.79906,-1.03706 1.68879,-1.96045 1.97717,-2.05198 0.34591,-0.10978 0.89317,0.0892 1.60822,0.58472 1.0239,0.70956 1.23893,0.75114 3.88464,0.75114 2.67781,0 2.89511,-0.0436 4.95071,-0.99219 1.35447,-0.62507 2.54324,-0.99218 3.21285,-0.99218 0.58458,0 1.99803,-0.1934 3.14099,-0.42977 2.34896,-0.48577 5.00538,-0.37643 6.55175,0.26969 0.5342,0.2232 1.66204,1.06471 2.50633,1.87001 1.4799,1.41159 3.73017,2.5234 5.10728,2.5234 0.27149,0 1.44084,-0.47625 2.59854,-1.05834 1.15771,-0.58208 2.42806,-1.05833 2.82301,-1.05833 0.39495,0 1.51973,0.47625 2.49953,1.05833 0.99392,0.59048 2.12515,1.05834 2.55894,1.05834 50.26188,-21.81685 17.11094,-3.97072 51.31904,-18.47741 l 1.91823,-0.81359 v 74.6007 74.6007 H 157.92043 22.453772 Z"
         id="path995" /></g></g></svg>
