<?xml version="1.0" encoding="UTF-8" standalone="no"?>
<!-- Created with Inkscape (http://www.inkscape.org/) -->

<svg
   width="270.93301mm"
   height="176.42346mm"
   viewBox="0 0 270.93301 176.42346"
   version="1.1"
   id="svg5"
   xml:space="preserve"
   inkscape:version="1.2 (dc2aedaf03, 2022-05-15)"
   sodipodi:docname="backparllax-1.svg"
   xmlns:inkscape="http://www.inkscape.org/namespaces/inkscape"
   xmlns:sodipodi="http://sodipodi.sourceforge.net/DTD/sodipodi-0.dtd"
   xmlns="http://www.w3.org/2000/svg"
   xmlns:svg="http://www.w3.org/2000/svg"><sodipodi:namedview
     id="namedview7"
     pagecolor="#ffffff"
     bordercolor="#000000"
     borderopacity="0.25"
     inkscape:showpageshadow="2"
     inkscape:pageopacity="0.0"
     inkscape:pagecheckerboard="0"
     inkscape:deskcolor="#d1d1d1"
     inkscape:document-units="mm"
     showgrid="false"
     inkscape:zoom="0.4204826"
     inkscape:cx="1727.7766"
     inkscape:cy="593.36581"
     inkscape:window-width="1920"
     inkscape:window-height="1171"
     inkscape:window-x="-9"
     inkscape:window-y="-9"
     inkscape:window-maximized="1"
     inkscape:current-layer="layer1" /><defs
     id="defs2" /><g
     inkscape:label="Layer 1"
     inkscape:groupmode="layer"
     id="layer1"
     transform="translate(-374.87718,-164.45782)"><g
       id="g1007"
       transform="translate(192.2132,-64.071065)"><path
         style="fill:#e1a36c;stroke-width:0.264583"
         d="m 182.66398,305.78915 v -76.47137 l 0.77697,0.40178 c 0.42734,0.22099 0.85013,0.52016 0.93954,0.66483 0.0894,0.14468 0.71065,0.64014 1.38053,1.10102 0.66988,0.46089 1.12933,0.69457 1.021,0.51929 -0.22729,-0.36776 0.54154,-2.14417 0.92801,-2.14417 0.14229,0 0.37188,-0.29766 0.5102,-0.66146 0.35716,-0.93941 1.27445,-0.87944 1.61791,0.10579 0.1471,0.42198 0.5049,0.82933 0.79511,0.90523 36.74614,7.10588 13.17513,20.73251 44.55053,12.6078 l 5.02708,-1.28202 0.98558,0.71076 c 2.32086,1.6737 5.25435,4.00231 7.34879,5.83348 1.24617,1.08952 2.99212,2.31674 3.91563,2.75228 l 1.66666,0.78602 2.53001,-0.31845 2.53001,-0.31846 2.52264,1.23567 c 3.79405,1.85844 6.8236,3.14696 9.32464,3.96592 1.23692,0.40503 3.33498,1.19658 4.66235,1.759 1.64142,0.6955 2.80777,1.02259 3.64632,1.02259 0.86924,0 1.27933,0.12091 1.39022,0.40988 0.20085,0.52341 2.23871,1.54666 6.57298,3.30044 2.32167,0.93942 3.61157,1.61441 3.96875,2.07679 0.76347,0.98836 1.95632,2.11322 3.68323,3.47331 0.83146,0.65484 1.8004,1.45212 2.15321,1.77172 1.75667,1.59133 7.124,4.31369 8.50476,4.31369 0.32007,0 1.26761,0.1786 2.10565,0.39688 0.83804,0.21828 1.91805,0.39687 2.40003,0.39687 0.85679,0 3.56504,-1.22658 6.40343,-2.90015 1.16556,-0.68724 1.46304,-0.76695 1.80454,-0.48353 0.26741,0.22192 1.0771,0.3185 2.33975,0.27908 1.53371,-0.0479 2.02502,0.0339 2.3888,0.39768 0.25188,0.25188 0.54585,0.45797 0.65326,0.45797 0.1074,0 0.28458,0.0893 0.39372,0.19843 0.31949,0.31949 0.95515,0.23068 0.74799,-0.1045 -0.13002,-0.21039 0.0355,-0.26038 0.54156,-0.16363 0.40084,0.0766 1.32237,-0.0173 2.04786,-0.20865 0.72549,-0.19138 1.47475,-0.28822 1.66502,-0.21521 0.19028,0.073 0.42134,0.0108 0.51348,-0.13831 0.0921,-0.14909 0.34383,-0.20341 0.5593,-0.12073 0.21548,0.0827 0.55825,0.0122 0.76172,-0.15669 0.20348,-0.16887 0.43504,-0.20172 0.5146,-0.073 0.17477,0.28278 0.96442,0.24875 1.46935,-0.0633 0.24763,-0.15304 0.30634,-0.12872 0.18055,0.0748 -0.13383,0.21654 0.17179,0.2622 1.0836,0.1619 23.5909,-3.29633 6.94588,-10.68831 18.23411,-18.33424 1.33821,-0.89511 3.17319,-2.45235 4.2284,-3.5884 2.11221,-2.27402 2.54289,-2.40721 4.16001,-1.28655 0.9634,0.66764 1.23607,0.7207 3.71838,0.72361 2.53488,0.003 2.79473,-0.0499 4.83828,-0.98506 1.27428,-0.58311 2.56734,-0.98819 3.15438,-0.98819 0.54717,0 2.01616,-0.19222 3.26443,-0.42715 4.20656,-0.79169 6.90138,-0.12341 9.52912,2.36308 1.14231,1.0809 1.84661,1.50467 3.14673,1.89336 l 1.67502,0.50077 2.23147,-1.1067 c 1.22731,-0.60869 2.54667,-1.1067 2.93193,-1.1067 0.38525,0 1.62084,0.53959 2.74575,1.19908 18.48519,3.08404 14.60649,-21.71156 30.28801,-6.32825 0.37462,0.34719 0.80764,0.63126 0.96226,0.63126 0.15462,0 1.43934,-0.75888 2.85494,-1.68638 5.72278,-3.74962 18.32653,-10.05152 20.70497,-10.35253 l 0.73795,-0.0934 v 74.59326 97.28507 l -136.35623,-1.33482 -134.13184,1.33482 z"
         id="path1017"
         sodipodi:nodetypes="ccssssssscccssscccssssssssssssssssssssssssssssccsssssssscssccssscccccc" /></g></g></svg>
